# xmcd
#
# Track frame offsets:
#	182
#	9277
#	20897
#	37400
#	51002
#	71077
#	88907
#	104495
#	119225
#	143017
#	160550
#	173112
#	185905
#
# Disc length: 2694 seconds
#
# Revision: 0
# Processed by: cddbd v1.5.2PL0 Copyright (c) Steve Scherf et al.
# Submitted via: VUPlayer 2.49
#
DISCID=bf0a840d
DTITLE=The Elmores - Happy Birthday To Me
DYEAR=1997
DGENRE=Blues
TTITLE0=Walk Away
TTITLE1=Pick On Me
TTITLE2=Happy Birthday To Me
TTITLE3=Lonesome Love
TTITLE4=Quicksand
TTITLE5=Delivery Man
TTITLE6=New Millenium
TTITLE7=Fitzroy I'm Calling You
TTITLE8=I Believe
TTITLE9=My Evil Twin Brother
TTITLE10=I Stay Awake And Wonder
TTITLE11=I Can't Be Late
TTITLE12=The Elmore Shuffle
EXTD=
EXTT0=
EXTT1=
EXTT2=
EXTT3=
EXTT4=
EXTT5=
EXTT6=
EXTT7=
EXTT8=
EXTT9=
EXTT10=
EXTT11=
EXTT12=
PLAYORDER=
